<?xml version="1.0" standalone="no"?>
<!DOCTYPE svg PUBLIC "-//W3C//DTD SVG 20010904//EN"
 "http://www.w3.org/TR/2001/REC-SVG-20010904/DTD/svg10.dtd">
<svg version="1.0" xmlns="http://www.w3.org/2000/svg"
 width="512.000000pt" height="512.000000pt" viewBox="0 0 512.000000 512.000000"
 preserveAspectRatio="xMidYMid meet">
<metadata>
Created by potrace 1.14, written by Peter Selinger 2001-2017
</metadata>
<g transform="translate(0.000000,512.000000) scale(0.100000,-0.100000)"
fill="#000000" stroke="none">
<path d="M2320 5109 c-491 -47 -981 -246 -1366 -557 -599 -482 -954 -1224
-954 -1992 0 -577 204 -1155 568 -1606 482 -599 1224 -954 1992 -954 577 0
1155 204 1606 568 599 482 954 1224 954 1992 0 577 -204 1155 -568 1606 -433
538 -1071 879 -1767 944 -125 11 -340 11 -465 -1z m436 -729 c364 -30 623
-140 840 -357 195 -195 316 -461 359 -790 l7 -53 -300 0 -300 0 -17 78 c-57
268 -168 434 -350 525 -118 59 -186 72 -375 72 -200 0 -255 -11 -386 -75 -238
-116 -380 -362 -441 -760 -25 -171 -25 -739 1 -895 48 -290 142 -492 301 -650
159 -158 332 -224 590 -225 264 0 476 53 616 156 l49 36 0 329 0 329 -395 0
-395 0 0 265 0 265 695 0 695 0 0 -679 0 -679 -64 -79 c-210 -256 -528 -406
-964 -453 -177 -20 -469 -8 -604 24 -614 143 -1005 592 -1125 1289 -27 152
-26 869 0 1037 122 777 574 1235 1272 1289 148 12 151 12 291 1z"/>
</g>
</svg>
